<?xml version="1.0" encoding="UTF-8"?>
<svg id="Ebene_1" data-name="Ebene 1" xmlns="http://www.w3.org/2000/svg" viewBox="0 0 168.36 134.07">
  <defs>
    <style>
      .cls-1 {
        fill: #fc0;
      }

      .cls-2 {
        fill: red;
      }

      .cls-3 {
        fill-rule: evenodd;
      }
    </style>
  </defs>
  <g id="uuid-90dcde29-bbaf-4717-8063-f8200845dc46">
    <path d="M5.23,1.3c-.22-.15-.7-.33-1.28-.33-1.28,0-2.53.84-2.53,3.01s.98,3.14,2.36,3.14c.5,0,.9-.09,1.21-.21v-2.09l-.64-.15c-.11-.02-.15-.05-.15-.12,0-.09.07-.22.12-.31h2.39s0,.06,0,.12c0,.17-.09.29-.36.37l-.24.06v2.19c-.28.25-1.06.82-2.6.82C1.67,7.81.22,6.67.22,4.12.22,1.39,2.25.32,3.99.32c1.11,0,1.67.31,2.02.47.03.32.06.97.06,1.05,0,.33-.09.54-.37.54-.08,0-.17-.02-.24-.04,0,0-.23-1.03-.23-1.03Z"/>
    <path d="M8.51,5.17c0,1.3.63,1.91,1.53,1.91.67,0,1.05-.26,1.31-.48.1.08.16.26.16.36,0,.26-.69.86-1.86.86-1.29,0-2.26-.74-2.26-2.56s1.1-2.76,2.3-2.76,1.79.72,1.79,1.77c0,.27-.05.64-.13.9h-2.84ZM10.34,4.61c.02-.09.05-.27.05-.45,0-.58-.21-1.07-.82-1.07s-.99.49-1.06,1.52h1.83Z"/>
    <path d="M15.32,3.19h-1.28v3.93l.71.14c.11.02.15.05.15.14,0,.1-.07.26-.1.29h-2.5s0-.06,0-.09c0-.19.13-.27.33-.35l.36-.12v-3.93h-.78s-.01-.06-.01-.09c0-.2.13-.3.33-.36l.46-.13v-.11c0-1.69,1.03-2.51,1.93-2.51.53,0,.74.23.74.56,0,.26-.16.41-.32.49-.09-.11-.37-.3-.69-.3-.45,0-.61.25-.61.87,0,.33.02,1,.02,1h1.4l-.12.58h0Z"/>
    <path d="M20.73,5.1c0,1.82-1.27,2.71-2.55,2.71s-2.39-.84-2.39-2.6,1.26-2.72,2.59-2.72,2.35.79,2.35,2.61ZM17.32,1.76c-.32,0-.57-.23-.57-.57,0-.36.25-.59.57-.59s.57.23.57.59c0,.34-.24.57-.57.57ZM16.91,5.14c0,1.41.57,2.04,1.34,2.04s1.35-.61,1.35-2.02-.58-2.06-1.35-2.06-1.34.62-1.34,2.04ZM19.22,1.76c-.34,0-.58-.23-.58-.57,0-.36.24-.59.58-.59.31,0,.56.23.56.59,0,.34-.24.57-.56.57Z"/>
    <path d="M23.16,3.45h.03c.22-.36.61-.97,1.29-.97.49,0,.72.23.72.56,0,.23-.1.43-.19.54-.08-.04-.35-.16-.7-.16-.58,0-.87.23-1.09.54v3.16l.76.14c.11.02.15.05.15.14,0,.1-.08.26-.1.29h-2.54s-.01-.06-.01-.09c0-.19.13-.27.33-.35l.37-.12v-3.88l-.75-.12s-.01-.06-.01-.11c0-.18.14-.3.39-.33l1.43-.14-.06.9h0Z"/>
    <path d="M30.11,7.1l.77.11s.01.04.01.08c0,.19-.14.31-.39.34l-1.39.12v-.68h-.03c-.23.33-.67.75-1.49.75-1.03,0-2-.66-2-2.49,0-1.95,1.36-2.83,2.71-2.83.3,0,.57.05.75.09V.75l-.75-.1s0-.07,0-.12c0-.18.14-.3.39-.33l1.43-.14s0,7.03,0,7.03ZM29.05,3.43c-.16-.15-.44-.31-.88-.31-.85,0-1.48.61-1.48,1.99s.59,1.9,1.29,1.9c.61,0,.93-.28,1.07-.44v-3.14h0Z"/>
    <path d="M32.6,5.17c.01,1.3.63,1.91,1.53,1.91.67,0,1.05-.26,1.31-.48.1.08.16.26.16.36,0,.26-.69.86-1.86.86-1.29,0-2.26-.74-2.26-2.56s1.1-2.76,2.3-2.76,1.79.72,1.79,1.77c0,.27-.05.64-.13.9h-2.85ZM34.44,4.61c.02-.09.05-.27.05-.45,0-.58-.21-1.07-.82-1.07s-.99.49-1.06,1.52h1.83Z"/>
    <path d="M38.05,3.45h.03c.22-.36.61-.97,1.29-.97.49,0,.72.23.72.56,0,.23-.1.43-.19.54-.08-.04-.35-.16-.7-.16-.58,0-.87.23-1.09.54v3.16l.76.14c.1.02.15.05.15.14,0,.1-.08.26-.11.29h-2.54s-.01-.06-.01-.09c0-.19.13-.27.33-.35l.37-.12v-3.88l-.75-.12s0-.06,0-.11c0-.18.14-.3.39-.33l1.43-.14s-.06.9-.06.9Z"/>
    <path d="M43.63,3.19h-1.44v3.07c0,.47.15.86.67.86.41,0,.75-.18.83-.25.05.08.09.24.09.35s-.37.6-1.32.6-1.33-.56-1.33-1.36v-3.25h-.79s-.01-.06-.01-.09c0-.2.13-.31.33-.36l.51-.13.24-1.42h.78v1.42h1.55l-.12.58h0Z"/>
    <path d="M51,7.1l.77.11s.01.04.01.08c0,.19-.14.31-.39.34l-1.39.12v-.68h-.03c-.23.33-.67.75-1.49.75-1.03,0-1.99-.66-1.99-2.49,0-1.95,1.37-2.83,2.71-2.83.3,0,.57.05.75.09V.75l-.75-.1s-.01-.07-.01-.12c0-.18.14-.3.39-.33l1.43-.14v7.03h0ZM49.94,3.43c-.16-.15-.44-.31-.88-.31-.85,0-1.48.61-1.48,1.99s.59,1.9,1.29,1.9c.61,0,.93-.28,1.07-.44v-3.14h0Z"/>
    <path d="M57.06,7.1l.77.11s.01.04.01.08c0,.19-.14.31-.39.34l-1.39.12v-.69h-.02c-.17.22-.63.76-1.55.76-1.12,0-1.65-.66-1.65-1.9v-2.68l-.75-.12s-.01-.06-.01-.11c0-.18.14-.3.39-.33l1.43-.14v3.31c0,.96.5,1.18.97,1.18.54,0,.89-.23,1.13-.5v-3.3l-.75-.12s-.01-.06-.01-.11c0-.18.14-.3.39-.33l1.43-.14v4.55h0Z"/>
    <path d="M60.03,3.45h.03c.22-.36.61-.97,1.29-.97.49,0,.72.23.72.56,0,.23-.1.43-.19.54-.08-.04-.35-.16-.7-.16-.58,0-.87.23-1.09.54v3.16l.76.14c.11.02.15.05.15.14,0,.1-.08.26-.1.29h-2.54s-.01-.06-.01-.09c0-.19.13-.27.33-.35l.37-.12v-3.88l-.75-.12s-.01-.06-.01-.11c0-.18.14-.3.39-.33l1.43-.14-.06.9h0Z"/>
    <path d="M64.91,3.12c-.7,0-1.31.5-1.31,1.88s.51,2.09,1.5,2.09c.65,0,1.03-.34,1.2-.5.09.09.17.26.17.36,0,.26-.58.87-1.73.87-1.36,0-2.25-.86-2.25-2.59s1.19-2.73,2.6-2.73c1.15,0,1.45.57,1.45.87,0,.28-.14.55-.54.63-.16-.37-.4-.87-1.09-.87h0Z"/>
    <path d="M68.81,3.24h.02c.21-.25.71-.76,1.62-.76,1.05,0,1.65.62,1.65,1.85v2.78l.61.14c.1.02.15.05.15.14,0,.1-.08.26-.11.29h-2.38s-.01-.06-.01-.09c0-.19.13-.28.33-.35l.35-.12v-2.66c0-.89-.48-1.17-1.02-1.17-.65,0-1,.28-1.2.48v3.34l.59.14c.1.02.15.05.15.14,0,.1-.07.26-.1.29h-2.38s-.01-.06-.01-.09c0-.19.13-.28.33-.35l.37-.12V.75l-.75-.1s-.01-.07-.01-.12c0-.18.14-.3.39-.33l1.44-.14v3.18h0Z"/>
    <path d="M74.2,3.78c-.37,0-.65-.25-.65-.64s.28-.65.65-.65.66.25.66.65-.29.64-.66.64ZM74.2,7.82c-.37,0-.65-.25-.65-.64s.28-.65.65-.65.66.25.66.65-.29.64-.66.64Z"/>
    <path d="M3.81,118.72c0,.42.16.55.34.55.24,0,.37-.13.4-.18.05.07.13.22.13.31,0,.14-.27.55-.96.55-.48,0-.79-.21-.88-.74h-.02c-.12.2-.5.76-1.38.76-.8,0-1.36-.55-1.36-1.38,0-1.12,1.23-1.54,2.4-1.54h.27v-.47c0-.96-.25-1.33-.9-1.33-.24,0-.45.07-.54.1-.09.2-.18.57-.23.92,0,0-.16.01-.24.01-.36,0-.56-.17-.56-.49,0-.65.86-1.14,1.84-1.14,1.15,0,1.69.63,1.69,1.82v2.26h0ZM2.51,117.57c-.85.04-1.33.35-1.33.9,0,.44.25.74.68.74s.76-.28.89-.45v-1.2h-.24Z"/>
    <path d="M9.81,119.25l.77.11s.01.04.01.08c0,.19-.14.31-.39.34l-1.39.12v-.69h-.02c-.17.22-.63.76-1.55.76-1.12,0-1.65-.66-1.65-1.9v-2.68l-.75-.12s-.01-.06-.01-.11c0-.18.14-.3.39-.33l1.43-.14v3.31c0,.96.5,1.18.97,1.18.54,0,.89-.23,1.13-.5v-3.3l-.75-.12s0-.06,0-.11c0-.18.14-.3.39-.33l1.43-.14v4.55h0Z"/>
    <path d="M14.14,115.35h-1.28v3.93l.71.14c.11.02.15.05.15.14,0,.1-.07.26-.1.29h-2.5s0-.06,0-.09c0-.19.13-.27.33-.35l.36-.12v-3.93h-.78s-.01-.06-.01-.09c0-.2.13-.3.33-.36l.46-.13v-.11c0-1.69,1.03-2.51,1.93-2.51.53,0,.74.23.74.56,0,.26-.16.41-.32.49-.09-.11-.37-.3-.69-.3-.45,0-.61.25-.61.87,0,.33.02,1,.02,1h1.4l-.12.58h0Z"/>
    <path d="M19.38,115.37h-.85c.2.26.33.58.33.96,0,1.11-.92,1.74-2.07,1.74-.18,0-.34-.02-.49-.05-.15.08-.29.23-.29.47s.17.37.52.37h1.22c.97,0,1.51.44,1.51,1.2,0,1.05-1.03,2.02-2.8,2.02-1.29,0-1.92-.45-1.92-1.22s.58-1.08.96-1.2v-.02c-.27-.15-.43-.4-.43-.74,0-.61.56-.89.76-1v-.02c-.59-.26-.97-.8-.97-1.55,0-1.1.92-1.68,2-1.68.28,0,.56.04.82.13h1.84l-.12.6h0ZM16.36,119.8c-.15,0-.27-.01-.39-.02-.27.16-.45.42-.45.78,0,.55.34.89,1.1.89,1.02,0,1.65-.47,1.65-1.03,0-.43-.24-.62-.78-.62h-1.13ZM15.9,116.34c0,.83.42,1.15.95,1.15.57,0,.98-.33.98-1.15,0-.75-.41-1.12-.96-1.12s-.97.32-.97,1.12Z"/>
    <path d="M21.61,115.61h.03c.22-.36.61-.97,1.29-.97.49,0,.72.23.72.56,0,.23-.1.43-.19.54-.08-.04-.35-.16-.7-.16-.58,0-.87.23-1.09.54v3.16l.76.14c.1.02.15.05.15.14,0,.1-.08.26-.11.29h-2.54s-.01-.06-.01-.09c0-.19.13-.27.33-.35l.37-.12v-3.88l-.75-.12s0-.06,0-.11c0-.18.14-.3.39-.33l1.43-.14-.06.9h0Z"/>
    <path d="M28.86,119.25l.77.11s.01.04.01.08c0,.19-.14.31-.39.34l-1.39.12v-.69h-.02c-.17.22-.63.76-1.55.76-1.12,0-1.65-.66-1.65-1.9v-2.68l-.75-.12s-.01-.06-.01-.11c0-.18.14-.3.39-.33l1.43-.14v3.31c0,.96.5,1.18.97,1.18.54,0,.89-.23,1.13-.5v-3.3l-.75-.12s-.01-.06-.01-.11c0-.18.14-.3.39-.33l1.43-.14v4.55h0Z"/>
    <path d="M35.19,119.27l.62.14c.1.02.15.05.15.14,0,.1-.08.26-.11.29h-2.38s0-.06,0-.09c0-.19.12-.28.33-.35l.35-.12v-2.66c0-.89-.5-1.17-1.02-1.17-.6,0-.99.28-1.21.46v3.36l.6.14c.11.02.15.05.15.14,0,.1-.08.26-.11.29h-2.38s-.01-.06-.01-.09c0-.19.13-.27.33-.35l.37-.12v-3.88l-.75-.12s-.01-.06-.01-.11c0-.18.14-.3.39-.33l1.43-.14-.06.74h.03c.28-.3.76-.8,1.72-.8,1.03,0,1.6.66,1.6,1.85v2.78h0Z"/>
    <path d="M41,119.25l.77.11s.01.04.01.08c0,.19-.14.31-.39.34l-1.39.12v-.68h-.03c-.23.33-.67.75-1.49.75-1.03,0-2-.66-2-2.49,0-1.95,1.36-2.83,2.71-2.83.3,0,.57.05.75.09v-1.84l-.75-.1s0-.07,0-.12c0-.18.14-.3.39-.33l1.43-.14v7.03h0ZM39.94,115.59c-.16-.15-.44-.31-.88-.31-.85,0-1.48.61-1.48,1.99s.59,1.9,1.29,1.9c.61,0,.93-.28,1.07-.44v-3.14h0Z"/>
    <path d="M45.67,117.32c.01,1.3.63,1.91,1.53,1.91.67,0,1.05-.26,1.31-.48.1.08.16.26.16.36,0,.26-.69.86-1.86.86-1.29,0-2.26-.74-2.26-2.56s1.1-2.76,2.3-2.76,1.79.72,1.79,1.77c0,.27-.05.64-.13.9h-2.85ZM47.51,116.77c.02-.09.05-.27.05-.45,0-.58-.21-1.07-.82-1.07s-.99.49-1.06,1.52h1.83Z"/>
    <path d="M51.19,119.27l.62.14c.1.02.15.05.15.14,0,.1-.08.26-.1.29h-2.4s-.01-.06-.01-.09c0-.19.13-.27.33-.35l.37-.12v-3.88l-.75-.12s-.01-.06-.01-.11c0-.18.14-.3.39-.33l1.43-.14v4.57h0ZM50.65,113.67c-.39,0-.68-.26-.68-.67s.29-.67.68-.67.69.27.69.67-.32.67-.69.67Z"/>
    <path d="M57.52,119.27l.62.14c.1.02.15.05.15.14,0,.1-.08.26-.11.29h-2.38s0-.06,0-.09c0-.19.12-.28.33-.35l.35-.12v-2.66c0-.89-.5-1.17-1.02-1.17-.6,0-.99.28-1.21.46v3.36l.6.14c.11.02.15.05.15.14,0,.1-.08.26-.11.29h-2.38s-.01-.06-.01-.09c0-.19.13-.27.33-.35l.37-.12v-3.88l-.75-.12s-.01-.06-.01-.11c0-.18.14-.3.39-.33l1.43-.14-.06.74h.03c.28-.3.76-.8,1.72-.8,1.03,0,1.6.66,1.6,1.85v2.78h0Z"/>
    <path d="M59.93,117.32c0,1.3.63,1.91,1.53,1.91.67,0,1.05-.26,1.31-.48.1.08.16.26.16.36,0,.26-.69.86-1.86.86-1.29,0-2.26-.74-2.26-2.56s1.1-2.76,2.3-2.76,1.79.72,1.79,1.77c0,.27-.05.64-.13.9h-2.84ZM61.77,116.77c.02-.09.05-.27.05-.45,0-.58-.21-1.07-.82-1.07s-.99.49-1.06,1.52c0,0,1.83,0,1.83,0Z"/>
    <path d="M66.19,115.42c-.12-.08-.38-.21-.69-.21-.35,0-.7.15-.7.59,0,.46.49.74,1,1.03.63.38,1.3.79,1.3,1.63s-.71,1.51-1.87,1.51c-.59,0-1.11-.18-1.33-.32-.04-.26-.07-.54-.07-.81,0-.42.12-.59.43-.59.05,0,.14.01.14.01l.22.89c.1.07.41.21.71.21.51,0,.84-.2.84-.64s-.5-.7-.98-1c-.64-.41-1.28-.82-1.28-1.72,0-.82.71-1.36,1.72-1.36.61,0,1.04.21,1.23.39.02.15.04.37.04.58,0,.37-.07.61-.45.61-.05,0-.13-.01-.13-.01l-.13-.79h0Z"/>
    <path d="M73.97,116.09v.02c1.02.17,1.69.75,1.69,1.7,0,1.18-.97,2.03-2.86,2.03h-2.67s0-.06,0-.12c0-.17.08-.32.36-.38l.44-.11v-6.07l-.64-.15c-.11-.02-.15-.05-.15-.12,0-.09.07-.22.12-.32h2.47c1.87,0,2.76.66,2.76,1.83,0,1-.61,1.47-1.51,1.67h0ZM72.63,113.24h-.57v2.65h.56c1.2,0,1.7-.59,1.7-1.33,0-.86-.54-1.31-1.69-1.31h0ZM72.75,116.49h-.69v2.71h.63c1.23,0,1.77-.58,1.77-1.4,0-.78-.58-1.31-1.71-1.31Z"/>
    <path d="M77.73,117.32c0,1.3.63,1.91,1.53,1.91.67,0,1.05-.26,1.31-.48.1.08.16.26.16.36,0,.26-.69.86-1.86.86-1.29,0-2.26-.74-2.26-2.56s1.1-2.76,2.3-2.76,1.79.72,1.79,1.77c0,.27-.05.64-.13.9h-2.84ZM79.57,116.77c.02-.09.05-.27.05-.45,0-.58-.21-1.07-.82-1.07s-.99.49-1.06,1.52c0,0,1.83,0,1.83,0Z"/>
    <path d="M83.99,115.42c-.12-.08-.38-.21-.69-.21-.35,0-.7.15-.7.59,0,.46.49.74,1,1.03.63.38,1.3.79,1.3,1.63s-.71,1.51-1.87,1.51c-.59,0-1.11-.18-1.33-.32-.04-.26-.07-.54-.07-.81,0-.42.12-.59.43-.59.05,0,.14.01.14.01l.22.89c.11.07.41.21.71.21.51,0,.84-.2.84-.64s-.5-.7-.98-1c-.64-.41-1.28-.82-1.28-1.72,0-.82.71-1.36,1.72-1.36.61,0,1.04.21,1.23.39.02.15.04.37.04.58,0,.37-.07.61-.45.61-.05,0-.13-.01-.13-.01l-.13-.79h0Z"/>
    <path d="M88.15,115.27c-.7,0-1.31.5-1.31,1.88s.51,2.09,1.5,2.09c.65,0,1.03-.34,1.2-.5.09.09.17.26.17.36,0,.26-.58.87-1.73.87-1.36,0-2.25-.86-2.25-2.59s1.19-2.73,2.6-2.73c1.15,0,1.45.57,1.45.87,0,.28-.14.55-.54.63-.16-.37-.4-.87-1.09-.87h0Z"/>
    <path d="M92.04,115.4h.02c.21-.25.71-.76,1.62-.76,1.05,0,1.65.62,1.65,1.85v2.78l.61.14c.1.02.15.05.15.14,0,.1-.08.26-.11.29h-2.38s-.01-.06-.01-.09c0-.19.13-.28.33-.35l.35-.12v-2.66c0-.89-.48-1.17-1.02-1.17-.65,0-1,.28-1.2.48v3.34l.59.14c.1.02.15.05.15.14,0,.1-.07.26-.1.29h-2.38s-.01-.06-.01-.09c0-.19.13-.28.33-.35l.37-.12v-6.37l-.75-.1s-.01-.07-.01-.12c0-.18.14-.3.39-.33l1.44-.14v3.18h0Z"/>
    <path d="M98.22,119.27l.61.14c.1.02.15.05.15.14,0,.1-.07.26-.11.29h-2.39s-.01-.06-.01-.09c0-.19.13-.28.33-.35l.37-.12v-6.37l-.75-.1s-.01-.07-.01-.12c0-.18.14-.3.39-.33l1.43-.14v7.05h0Z"/>
    <path d="M104.32,119.25l.77.11s.01.04.01.08c0,.19-.14.31-.39.34l-1.39.12v-.69h-.02c-.17.22-.63.76-1.55.76-1.12,0-1.65-.66-1.65-1.9v-2.68l-.75-.12s-.01-.06-.01-.11c0-.18.14-.3.39-.33l1.43-.14v3.31c0,.96.5,1.18.97,1.18.54,0,.89-.23,1.13-.5v-3.3l-.75-.12s-.01-.06-.01-.11c0-.18.14-.3.39-.33l1.43-.14v4.55h0Z"/>
    <path d="M108.1,115.42c-.12-.08-.38-.21-.69-.21-.35,0-.7.15-.7.59,0,.46.49.74,1,1.03.63.38,1.3.79,1.3,1.63s-.71,1.51-1.87,1.51c-.59,0-1.11-.18-1.33-.32-.04-.26-.07-.54-.07-.81,0-.42.12-.59.43-.59.05,0,.14.01.14.01l.22.89c.11.07.41.21.71.21.51,0,.84-.2.84-.64s-.5-.7-.98-1c-.64-.41-1.28-.82-1.28-1.72,0-.82.71-1.36,1.72-1.36.61,0,1.04.21,1.23.39.02.15.04.37.04.58,0,.37-.07.61-.45.61-.05,0-.13-.01-.13-.01l-.13-.79h0Z"/>
    <path d="M112.23,115.42c-.12-.08-.38-.21-.69-.21-.35,0-.7.15-.7.59,0,.46.49.74,1,1.03.63.38,1.3.79,1.3,1.63s-.71,1.51-1.87,1.51c-.59,0-1.11-.18-1.33-.32-.04-.26-.07-.54-.07-.81,0-.42.12-.59.43-.59.05,0,.14.01.14.01l.22.89c.11.07.41.21.71.21.51,0,.84-.2.84-.64s-.5-.7-.98-1c-.64-.41-1.28-.82-1.28-1.72,0-.82.71-1.36,1.72-1.36.61,0,1.04.21,1.23.39.02.15.04.37.04.58,0,.37-.07.61-.45.61-.05,0-.13-.01-.13-.01l-.13-.79h0Z"/>
    <path d="M115.08,117.32c0,1.3.63,1.91,1.53,1.91.67,0,1.05-.26,1.31-.48.1.08.16.26.16.36,0,.26-.69.86-1.86.86-1.29,0-2.26-.74-2.26-2.56s1.1-2.76,2.3-2.76,1.79.72,1.79,1.77c0,.27-.05.64-.13.9h-2.84,0ZM116.92,116.77c.02-.09.05-.27.05-.45,0-.58-.21-1.07-.82-1.07s-.99.49-1.06,1.52h1.83Z"/>
    <path d="M121.34,115.42c-.12-.08-.38-.21-.69-.21-.35,0-.7.15-.7.59,0,.46.49.74,1,1.03.63.38,1.3.79,1.3,1.63s-.71,1.51-1.87,1.51c-.59,0-1.11-.18-1.33-.32-.04-.26-.07-.54-.07-.81,0-.42.12-.59.43-.59.05,0,.14.01.14.01l.22.89c.11.07.41.21.71.21.51,0,.84-.2.84-.64s-.5-.7-.98-1c-.64-.41-1.28-.82-1.28-1.72,0-.82.71-1.36,1.72-1.36.61,0,1.04.21,1.23.39.02.15.04.37.04.58,0,.37-.07.61-.45.61-.05,0-.13-.01-.13-.01l-.13-.79h0Z"/>
    <path d="M4.65,131.25l.77.11s.01.04.01.08c0,.19-.14.31-.39.34l-1.39.12v-.68h-.03c-.23.33-.67.75-1.49.75-1.03,0-1.99-.66-1.99-2.49,0-1.95,1.37-2.83,2.71-2.83.3,0,.57.05.75.09v-1.84l-.75-.1s-.01-.07-.01-.12c0-.18.14-.3.39-.33l1.43-.14v7.03h0ZM3.59,127.59c-.16-.15-.44-.31-.88-.31-.85,0-1.48.61-1.48,1.99s.59,1.9,1.29,1.9c.61,0,.93-.28,1.07-.44v-3.14h0Z"/>
    <path d="M7.14,129.32c0,1.3.63,1.91,1.53,1.91.67,0,1.05-.26,1.31-.48.1.08.16.26.16.36,0,.26-.69.86-1.86.86-1.29,0-2.26-.74-2.26-2.56s1.1-2.76,2.3-2.76,1.79.72,1.79,1.77c0,.27-.05.64-.13.9h-2.84ZM8.98,128.77c.02-.09.05-.27.05-.45,0-.58-.21-1.07-.82-1.07s-.99.49-1.06,1.52h1.83Z"/>
    <path d="M13.4,127.42c-.12-.08-.38-.21-.69-.21-.35,0-.7.15-.7.59,0,.46.49.74,1,1.03.63.38,1.3.79,1.3,1.63s-.71,1.51-1.87,1.51c-.59,0-1.11-.18-1.33-.32-.04-.26-.07-.54-.07-.81,0-.42.12-.59.43-.59.05,0,.14.01.14.01l.22.89c.1.07.41.21.71.21.51,0,.84-.2.84-.64s-.5-.7-.98-1c-.64-.41-1.28-.82-1.28-1.72,0-.82.71-1.36,1.72-1.36.61,0,1.04.21,1.23.39.02.15.04.37.04.58,0,.37-.07.61-.45.61-.05,0-.13-.01-.13-.01l-.13-.79Z"/>
    <path d="M19.72,131.84h-2.37s0-.06,0-.12c0-.17.08-.32.36-.38l.44-.11v-6.07l-.64-.15c-.11-.02-.15-.05-.15-.12,0-.09.07-.22.12-.32h2.26c2.65,0,4.23.99,4.23,3.52s-1.57,3.73-4.23,3.73h0ZM19.69,125.24h-.42v5.96h.42c1.94,0,3.05-1.02,3.05-3.05s-1.12-2.91-3.05-2.91Z"/>
    <path d="M26,129.32c0,1.3.63,1.91,1.53,1.91.67,0,1.05-.26,1.31-.48.1.08.16.26.16.36,0,.26-.69.86-1.86.86-1.29,0-2.26-.74-2.26-2.56s1.1-2.76,2.3-2.76,1.79.72,1.79,1.77c0,.27-.05.64-.13.9h-2.84ZM27.84,128.77c.02-.09.05-.27.05-.45,0-.58-.21-1.07-.82-1.07s-.99.49-1.06,1.52h1.83Z"/>
    <path d="M34.53,131.25l.77.11s.01.04.01.08c0,.19-.14.31-.39.34l-1.39.12v-.69h-.02c-.17.22-.63.76-1.55.76-1.12,0-1.65-.66-1.65-1.9v-2.68l-.75-.12s-.01-.06-.01-.11c0-.18.14-.3.39-.33l1.43-.14v3.31c0,.96.5,1.18.97,1.18.54,0,.89-.23,1.13-.5v-3.3l-.75-.12s-.01-.06-.01-.11c0-.18.14-.3.39-.33l1.43-.14v4.55h0Z"/>
    <path d="M38.91,127.35h-1.44v3.07c0,.47.15.86.67.86.41,0,.75-.18.83-.25.05.08.09.24.09.35s-.37.6-1.32.6-1.33-.56-1.33-1.36v-3.25h-.79s-.01-.06-.01-.09c0-.2.13-.31.33-.36l.51-.13.24-1.42h.78v1.42h1.55l-.12.58h0Z"/>
    <path d="M41.99,127.42c-.12-.08-.38-.21-.69-.21-.35,0-.7.15-.7.59,0,.46.49.74,1,1.03.63.38,1.3.79,1.3,1.63s-.71,1.51-1.87,1.51c-.59,0-1.11-.18-1.33-.32-.04-.26-.07-.54-.07-.81,0-.42.12-.59.43-.59.05,0,.14.01.14.01l.22.89c.1.07.41.21.71.21.51,0,.84-.2.84-.64s-.5-.7-.98-1c-.64-.41-1.28-.82-1.28-1.72,0-.82.71-1.36,1.72-1.36.61,0,1.04.21,1.23.39.02.15.04.37.04.58,0,.37-.07.61-.45.61-.05,0-.13-.01-.13-.01,0,0-.13-.79-.13-.79Z"/>
    <path d="M46.15,127.28c-.7,0-1.31.5-1.31,1.88s.51,2.09,1.5,2.09c.65,0,1.03-.34,1.2-.5.09.09.17.26.17.36,0,.26-.58.87-1.73.87-1.37,0-2.25-.86-2.25-2.59s1.19-2.73,2.6-2.73c1.16,0,1.45.57,1.45.87,0,.28-.14.55-.54.63-.16-.37-.4-.87-1.09-.87h0Z"/>
    <path d="M50.04,127.4h.02c.21-.25.71-.76,1.62-.76,1.05,0,1.65.62,1.65,1.85v2.78l.61.14c.1.02.15.05.15.14,0,.1-.08.26-.11.29h-2.38s-.01-.06-.01-.09c0-.19.13-.28.33-.35l.35-.12v-2.66c0-.89-.48-1.17-1.02-1.17-.65,0-1,.28-1.2.48v3.34l.59.14c.1.02.15.05.15.14,0,.1-.07.26-.1.29h-2.38s-.01-.06-.01-.09c0-.19.13-.28.33-.35l.37-.12v-6.37l-.75-.1s-.01-.07-.01-.12c0-.18.14-.3.39-.33l1.44-.14v3.18h0Z"/>
    <path d="M55.73,129.32c.01,1.3.63,1.91,1.53,1.91.67,0,1.05-.26,1.31-.48.1.08.16.26.16.36,0,.26-.69.86-1.86.86-1.29,0-2.26-.74-2.26-2.56s1.1-2.76,2.3-2.76,1.79.72,1.79,1.77c0,.27-.05.64-.13.9h-2.85ZM57.57,128.77c.02-.09.05-.27.05-.45,0-.58-.21-1.07-.82-1.07s-.99.49-1.06,1.52h1.83Z"/>
    <path d="M64.53,131.28l.62.14c.11.02.15.05.15.14,0,.1-.08.26-.1.29h-2.38s-.01-.06-.01-.09c0-.19.13-.28.33-.35l.35-.12v-2.66c0-.89-.5-1.17-1.02-1.17-.6,0-.99.28-1.21.46v3.36l.6.14c.11.02.15.05.15.14,0,.1-.08.26-.11.29h-2.38s-.01-.06-.01-.09c0-.19.13-.27.33-.35l.37-.12v-3.88l-.75-.12s0-.06,0-.11c0-.18.14-.3.39-.33l1.43-.14-.06.74h.03c.28-.3.76-.8,1.72-.8,1.03,0,1.6.66,1.6,1.85v2.78h0Z"/>
    <path d="M71.88,128.09v.02c1.02.17,1.69.75,1.69,1.7,0,1.18-.97,2.03-2.86,2.03h-2.67s0-.06,0-.12c0-.17.08-.32.36-.38l.44-.11v-6.07l-.64-.15c-.11-.02-.15-.05-.15-.12,0-.09.07-.22.12-.32h2.47c1.87,0,2.76.66,2.76,1.83,0,1-.61,1.47-1.51,1.67h0ZM70.54,125.24h-.57v2.65h.56c1.2,0,1.7-.59,1.7-1.33,0-.86-.54-1.31-1.69-1.31h0ZM70.66,128.49h-.69v2.71h.63c1.23,0,1.77-.58,1.77-1.4,0-.78-.58-1.31-1.71-1.31Z"/>
    <path d="M79.21,131.25l.77.11s.01.04.01.08c0,.19-.14.31-.39.34l-1.39.12v-.69h-.02c-.17.22-.63.76-1.55.76-1.12,0-1.65-.66-1.65-1.9v-2.68l-.75-.12s-.01-.06-.01-.11c0-.18.14-.3.39-.33l1.43-.14v3.31c0,.96.5,1.18.97,1.18.54,0,.89-.23,1.13-.5v-3.3l-.75-.12s0-.06,0-.11c0-.18.14-.3.39-.33l1.43-.14v4.55h0Z"/>
    <path d="M85.53,131.28l.62.14c.1.02.15.05.15.14,0,.1-.08.26-.11.29h-2.38s0-.06,0-.09c0-.19.12-.28.33-.35l.35-.12v-2.66c0-.89-.5-1.17-1.02-1.17-.6,0-.99.28-1.21.46v3.36l.6.14c.11.02.15.05.15.14,0,.1-.08.26-.11.29h-2.38s-.01-.06-.01-.09c0-.19.13-.27.33-.35l.37-.12v-3.88l-.75-.12s-.01-.06-.01-.11c0-.18.14-.3.39-.33l1.43-.14-.06.74h.03c.28-.3.76-.8,1.72-.8,1.03,0,1.6.66,1.6,1.85v2.78h0Z"/>
    <path d="M91.35,131.25l.77.11s.01.04.01.08c0,.19-.14.31-.39.34l-1.39.12v-.68h-.03c-.23.33-.67.75-1.49.75-1.03,0-1.99-.66-1.99-2.49,0-1.95,1.37-2.83,2.71-2.83.3,0,.57.05.75.09v-1.84l-.75-.1s-.01-.07-.01-.12c0-.18.14-.3.39-.33l1.43-.14v7.03h0ZM90.29,127.59c-.16-.15-.44-.31-.88-.31-.85,0-1.48.61-1.48,1.99s.59,1.9,1.29,1.9c.61,0,.93-.28,1.07-.44v-3.14h0Z"/>
    <path d="M93.84,129.32c0,1.3.63,1.91,1.53,1.91.67,0,1.05-.26,1.31-.48.1.08.16.26.16.36,0,.26-.69.86-1.86.86-1.29,0-2.26-.74-2.26-2.56s1.1-2.76,2.3-2.76,1.79.72,1.79,1.77c0,.27-.05.64-.13.9h-2.84ZM95.68,128.77c.02-.09.05-.27.05-.45,0-.58-.21-1.07-.82-1.07s-.99.49-1.06,1.52c0,0,1.83,0,1.83,0Z"/>
    <path d="M100.1,127.42c-.12-.08-.38-.21-.69-.21-.35,0-.7.15-.7.59,0,.46.49.74,1,1.03.63.38,1.3.79,1.3,1.63s-.71,1.51-1.87,1.51c-.59,0-1.11-.18-1.33-.32-.04-.26-.07-.54-.07-.81,0-.42.12-.59.43-.59.05,0,.14.01.14.01l.22.89c.1.07.41.21.71.21.51,0,.84-.2.84-.64s-.5-.7-.98-1c-.64-.41-1.28-.82-1.28-1.72,0-.82.71-1.36,1.72-1.36.61,0,1.04.21,1.23.39.02.15.04.37.04.58,0,.37-.07.61-.45.61-.05,0-.13-.01-.13-.01l-.13-.79h0Z"/>
    <path d="M104.83,127.35h-1.44v3.07c0,.47.15.86.67.86.41,0,.75-.18.83-.25.05.08.09.24.09.35s-.37.6-1.32.6-1.33-.56-1.33-1.36v-3.25h-.79s-.01-.06-.01-.09c0-.2.13-.31.33-.36l.51-.13.24-1.42h.78v1.42h1.55l-.12.58h0Z"/>
    <path d="M109.18,130.72c0,.42.16.55.34.55.24,0,.37-.13.4-.18.05.07.13.22.13.31,0,.14-.27.55-.96.55-.48,0-.79-.21-.88-.74h-.02c-.12.2-.5.76-1.38.76-.8,0-1.36-.55-1.36-1.38,0-1.12,1.23-1.54,2.4-1.54h.27v-.47c0-.96-.25-1.33-.9-1.33-.24,0-.45.07-.54.1-.09.2-.18.57-.23.92,0,0-.16.01-.24.01-.36,0-.56-.17-.56-.49,0-.65.86-1.14,1.84-1.14,1.15,0,1.69.63,1.69,1.82v2.26h0ZM107.88,129.57c-.85.04-1.33.35-1.33.9,0,.44.25.74.68.74s.76-.28.89-.45v-1.2h-.24Z"/>
    <path d="M115.14,127.37h-.85c.2.26.33.58.33.96,0,1.11-.92,1.74-2.07,1.74-.18,0-.34-.02-.49-.05-.15.08-.29.23-.29.47s.17.37.52.37h1.22c.97,0,1.51.44,1.51,1.2,0,1.05-1.03,2.02-2.8,2.02-1.29,0-1.92-.45-1.92-1.22s.58-1.08.96-1.2v-.02c-.27-.15-.43-.4-.43-.74,0-.61.56-.89.76-1v-.02c-.59-.26-.97-.8-.97-1.55,0-1.1.92-1.68,2-1.68.28,0,.56.04.82.13h1.84l-.12.6h0ZM112.12,131.8c-.15,0-.27-.01-.39-.02-.27.16-.45.42-.45.78,0,.55.34.89,1.1.89,1.02,0,1.65-.47,1.65-1.03,0-.43-.24-.62-.78-.62h-1.13,0ZM111.66,128.34c0,.83.42,1.15.95,1.15.57,0,.98-.33.98-1.15,0-.75-.41-1.12-.96-1.12s-.97.32-.97,1.12Z"/>
    <path d="M116.89,129.32c0,1.3.63,1.91,1.53,1.91.67,0,1.05-.26,1.31-.48.1.08.16.26.16.36,0,.26-.69.86-1.86.86-1.29,0-2.26-.74-2.26-2.56s1.1-2.76,2.3-2.76,1.79.72,1.79,1.77c0,.27-.05.64-.13.9h-2.84,0ZM118.72,128.77c.02-.09.05-.27.05-.45,0-.58-.21-1.07-.82-1.07s-.99.49-1.06,1.52h1.83Z"/>
    <path d="M123.14,127.42c-.12-.08-.38-.21-.69-.21-.35,0-.7.15-.7.59,0,.46.49.74,1,1.03.63.38,1.3.79,1.3,1.63s-.71,1.51-1.87,1.51c-.59,0-1.11-.18-1.33-.32-.04-.26-.07-.54-.07-.81,0-.42.12-.59.43-.59.05,0,.14.01.14.01l.22.89c.1.07.41.21.71.21.51,0,.84-.2.84-.64s-.5-.7-.98-1c-.64-.41-1.28-.82-1.28-1.72,0-.82.71-1.36,1.72-1.36.61,0,1.04.21,1.23.39.02.15.04.37.04.58,0,.37-.07.61-.45.61-.05,0-.13-.01-.13-.01l-.13-.79Z"/>
  </g>
  <g id="uuid-945d9f42-fb42-46a2-9efb-c0026169fe46">
    <path class="cls-3" d="M14.1,37.8c.03-.22.04-.45.04-.69,0-.13,0-.28-.02-.45,2-.03,3.74-1.46,3.74-3.12,0-.84-.55-1.47-.86-1.85.07-.02.14-.03.21-.05.29.25,1.12,1.15,1.12,2.29,0,1.98-1.98,3.82-4.24,3.86M12.09,30.9c-.03-.22-.12-.42-.25-.59,0-.2.09-.4.42-.24-.17.18-.04.5-.04.5,0,0,.36-.17.28-.41.54.13.15.84-.41.74M11.63,31.92c-.07-.3-.22-.6-.42-.83-.17-.21-.46-.45-.86-.45-.18,0-.48.08-.67.16-.07-.13-.21-.44-.21-.58s.25-.29.72-.29c1.03,0,1.65.47,1.65,1.25,0,.28-.11.53-.21.75M14.28,45.22c.12,0,.18.02.25.05.3.81,1.44,2.33,1.49,2.4h.01s.01,0,.01,0c.28-.04,1-.15,1.6-.15h.02c.06,0,.14,0,.18.05.04.04.06.11.06.2,0,.15-.06.41-.14.51-.21-.23-.55-.33-1.09-.33-.17,0-.36.05-.47.07h-.04s-.05.02-.05.02l.31.32c.49.48.91.9.91,1.18,0,.17-.16.39-.31.48-.03-.51-.55-1.19-1.06-1.58l-.04-.04v.18c-.01.12-.02.31-.02.5,0,.97-.1,1.12-.44,1.12-.05,0-.13-.02-.18-.04.19-.24.26-.54.26-1.09v-.25s0-.2,0-.2c0-.23.02-.39.04-.52v-.07s-.04,0-.04,0c-.16-.02-.45-.06-.68-.06-.48,0-.81.05-1.04.26-.16-.12-.32-.34-.32-.48,0-.2.12-.22.29-.22.08,0,.16.02.27.03.21.03.52.08,1.16.08h.04v-.04c-.18-.46-.62-1.14-1.34-2.01.06-.24.12-.39.35-.39M8.11,47.62l-.02.04h.04c.64,0,.95-.05,1.16-.08.11-.01.19-.03.27-.03.16,0,.29.02.29.22,0,.14-.16.35-.32.48-.24-.22-.56-.26-1.04-.26-.22,0-.52.04-.68.06h-.02s-.03,0-.03,0v.07c.03.13.05.3.05.52v.2s0,.25,0,.25c0,.54.07.85.27,1.09-.05.02-.13.04-.18.04-.34,0-.44-.15-.44-1.12,0-.19,0-.38-.01-.5v-.18s-.05.04-.05.04c-.5.38-1.02,1.07-1.05,1.58-.15-.1-.32-.32-.32-.48,0-.28.42-.7.91-1.18l.28-.28.04-.04-.09-.02c-.11-.03-.3-.07-.47-.07-.54,0-.88.1-1.09.33-.08-.11-.14-.37-.14-.51,0-.1.02-.16.06-.2.05-.05.12-.05.19-.05h.01c.6,0,1.32.11,1.6.15h.02s0,0,0,0c.05-.07,1.2-1.59,1.49-2.4.07-.03.12-.05.25-.05.23,0,.29.15.35.39-.72.87-1.16,1.55-1.32,2.01M5.01,33.94c0-1.14.83-2.04,1.12-2.29.07.01.14.03.21.05-.31.38-.86,1.01-.86,1.85,0,1.67,1.78,3.12,3.8,3.12-.01.15-.02.29-.02.45,0,.25.01.47.03.69-2.28-.01-4.29-1.86-4.29-3.86M20.32,37.45c1.02,1.62,1.82,1.59,3.03,1.59-1-.76-1.66-1.75-1.98-2.25l-1.87-2.99c-.18-.92-.66-1.78-1.38-2.43.24-.09.44-.19.56-.28-1.22,0-2.43-.62-3.1-.62-.42,0-.7.26-.7.59.03.38.42.76,1.13.76.16,0,.37-.02.6-.06.39.54.7,1.03.7,1.73,0,1.31-1.57,2.33-3.15,2.33-.09,0-.17,0-.26-.01-.15-.32-.62-.87-.62-1.49,0-1.04.68-1.89.68-2.92,0-.64-.31-1.04-.43-1.2.19-.18.41-.4.46-.55-.11.05-.25.05-.44.05-.76,0-1.38-.19-1.98-.19-.34,0-.43.11-.43.21,0,.03,0,.07.02.09-.13-.05-.25-.08-.4-.11-.17-.04-.37-.05-.57-.05-.73,0-.99.3-.99.57,0,.22.18.62.38.94.28-.15.62-.24.78-.24.39,0,.73.37.92.81-.26.03-.31.04-.57.04-.72,0-1.2-.25-1.3-.25-.01,0-.03,0-.03.02,0,.1.2.36.6.51.52.2,1.31.27,1.44.3,0,.02-.13.27-.28.32-.03.01-.05.01-.09,0-.55-.11-.7-.15-1.4-.42-.02,0-.03,0-.03.03,0,.27.71.88,1.35,1.11-.53.68-1.2,1.38-1.51,2.44-.09,0-.18.01-.27.01-1.58,0-3.15-1.02-3.15-2.33,0-.7.31-1.19.7-1.73.23.04.43.06.6.06.71,0,1.1-.38,1.13-.76,0-.34-.27-.59-.7-.59-.67,0-1.88.62-3.1.62.12.09.32.19.56.28-.72.65-1.19,1.51-1.38,2.43l-1.87,2.99c-.32.5-.98,1.49-1.98,2.25,1.21,0,2.01.03,3.04-1.59l.96-1.53c.07.2.16.39.26.58l-1.91,3.05c-.32.51-.98,1.48-1.98,2.25,1.21,0,2.01.03,3.03-1.59l1.64-2.62c.12.13.25.26.39.38l-2.32,3.71c-.32.51-.97,1.48-1.98,2.25,1.21,0,2.01.03,3.03-1.59l2.26-3.61c.15.09.3.18.46.27l-2.76,4.41c-.32.5-.97,1.47-1.98,2.25,1.21,0,2.01.03,3.04-1.59l2.84-4.54c.17.06.34.12.51.18l-3.21,5.13c-.31.5-.99,1.49-1.98,2.25,1.21,0,2.01.03,3.03-1.59l3.42-5.47s.07,0,.11.01c.09.3.16.58.16.85,0,1.72-1.12,3.24-2.48,4.41.09.04.24.05.38.05.28,0,.46-.02.59-.04-.32.71-.99,1.64-1.33,2.11-.44-.08-1.09-.14-1.51-.14s-.49.26-.49.49c0,.4.19.72.41.9.08-.2.25-.48,1.06-.48.02,0,.05,0,.08,0-.24.26-.98.87-.98,1.36,0,.32.35.81.82.81-.03-.11-.03-.2-.03-.27,0-.39.35-.85.64-1.18,0,.1,0,.09,0,.2,0,.93.09,1.36.68,1.36.29,0,.49-.16.56-.21-.38-.36-.4-.63-.4-1.15,0-.14,0-.27,0-.45,0-.12,0-.28-.02-.39.21-.03.3-.03.46-.03,0,0,.84-.07,1.04.37.23-.21.56-.5.56-.83,0-.21-.1-.46-.53-.46-.16,0-.68.1-1.11.1.12-.26.63-1.01,1.08-1.56.07.21.17.44.41.63.03-.35.24-1.46.79-2.12.07.44.15.89.15,1.84,0,2.31-.56,4.02-1.74,4.35.15.27.48.51.82.51.43,0,.67-.49.91-.95.12.34.47,1.18.82,1.18s.69-.84.82-1.18c.24.46.48.95.91.95.34,0,.66-.24.82-.51-1.18-.32-1.74-2.04-1.74-4.35,0-.95.09-1.4.15-1.84.55.65.76,1.76.79,2.12.24-.19.34-.42.41-.63.44.55.96,1.3,1.08,1.56-.43,0-.95-.1-1.11-.1-.43,0-.53.25-.53.46,0,.32.33.62.56.83.2-.44,1.04-.37,1.04-.37.16,0,.25,0,.46.03-.02.12-.02.27-.02.39v.45c0,.52-.02.8-.4,1.15.07.05.27.21.56.21.59,0,.68-.43.68-1.36,0-.11,0-.1,0-.2.29.32.65.79.65,1.18,0,.07,0,.17-.03.27.47,0,.82-.49.82-.81,0-.49-.75-1.09-.98-1.36.04,0,.07,0,.08,0,.82,0,.98.27,1.06.48.22-.18.41-.5.41-.9,0-.23-.05-.49-.49-.49s-1.07.06-1.51.14c-.34-.47-1.01-1.39-1.33-2.11.13.02.31.04.59.04.14,0,.29-.02.38-.05-1.35-1.17-2.48-2.69-2.48-4.41,0-.27.06-.55.16-.85.03,0,.07-.01.1-.01l3.42,5.47c1.02,1.62,1.83,1.59,3.03,1.59-1-.76-1.67-1.75-1.98-2.25l-3.21-5.13c.18-.05.34-.12.51-.18l2.84,4.54c1.02,1.62,1.82,1.59,3.03,1.59-1.01-.78-1.66-1.75-1.98-2.25l-2.75-4.41c.16-.09.31-.18.46-.27l2.26,3.61c1.02,1.62,1.82,1.59,3.03,1.59-1.01-.77-1.66-1.74-1.98-2.25l-2.32-3.71c.14-.12.27-.25.39-.38l1.65,2.62c1.02,1.62,1.82,1.59,3.03,1.59-1-.77-1.66-1.75-1.98-2.25l-1.91-3.05c.1-.19.19-.38.26-.58,0,0,.96,1.53.96,1.53Z"/>
    <rect x="29.43" y="30.51" width="3.5" height="20"/>
    <rect class="cls-2" x="29.43" y="50.51" width="3.5" height="20"/>
    <rect class="cls-1" x="29.43" y="70.51" width="3.5" height="20"/>
    <path class="cls-3" d="M45.22,32.33c0-1.28-.78-2.11-2.75-2.11h-1.59v8.28h1.69c1.98,0,2.87-.95,2.87-2.25,0-1.1-.71-1.82-1.56-1.99v-.02c.72-.19,1.34-.75,1.34-1.91h0ZM44.16,32.37c0,.95-.59,1.53-1.7,1.53h-.54v-2.86h.55c1.16,0,1.69.57,1.69,1.32h0ZM44.32,36.18c0,.95-.53,1.45-1.75,1.45h-.65v-2.91h.71c1.08,0,1.69.57,1.69,1.45h0ZM49.84,37.85h.03v.65h.89v-5.76h-.97v4.41c-.19.24-.57.64-1.16.64-.65,0-.96-.39-.96-1.33v-3.71h-.97v3.78c0,1.56.64,2.12,1.66,2.12.88,0,1.39-.59,1.5-.79h0ZM54.39,33.42c.67,0,1,.4,1,1.37v3.71h.97v-3.78c0-1.56-.65-2.12-1.68-2.12-.9,0-1.41.59-1.52.79h-.02v-.65h-.89v5.76h.97v-4.44c.19-.24.59-.64,1.18-.64h0ZM59.82,37.78c-.67,0-1.27-.53-1.27-2.11s.71-2.21,1.61-2.21c.35,0,.58.09.75.2v3.55c-.13.19-.47.57-1.08.57h0ZM60.96,37.89h.02v.61h.89v-8.59l-.97.11v2.76c-.18-.07-.45-.15-.82-.15-1.22,0-2.54.74-2.54,3.07,0,2.1.92,2.94,2.02,2.94.91,0,1.29-.58,1.4-.76h0ZM65.23,33.39c.61,0,.93.47.93,1.26,0,.18-.01.34-.02.42h-2.09c.05-1.08.49-1.68,1.18-1.68h0ZM67.18,37.96l-.36-.68c-.13.13-.53.5-1.21.5-.97,0-1.5-.64-1.56-1.98h2.94c.04-.28.07-.62.07-1.12,0-1.38-.67-2.09-1.77-2.09-1.2,0-2.19.91-2.19,2.95,0,2.17.91,3.1,2.36,3.1,1.09,0,1.56-.52,1.71-.68h0ZM71.26,33.21c-.19-.19-.58-.61-1.46-.61-.93,0-1.67.64-1.67,1.49,0,.79.43,1.26,1.15,1.72l.36.23c.56.35.84.54.84,1.09,0,.37-.31.66-.89.66-.62,0-.98-.38-1.16-.57l-.47.77c.23.24.7.66,1.62.66,1.18,0,1.84-.71,1.84-1.62,0-.85-.48-1.32-1.26-1.79l-.36-.22c-.51-.31-.75-.55-.75-.98,0-.34.27-.61.79-.61.54,0,.88.34,1.01.48,0,0,.42-.7.42-.7ZM74.71,33.46c.6,0,.86.4.86,1.33v3.71h.97v-3.86c0-.22-.01-.42-.05-.6.22-.25.58-.58,1.11-.58.65,0,1,.4,1,1.33v3.71h.97v-3.86c0-1.37-.6-2.04-1.75-2.04-.74,0-1.27.44-1.52.77-.26-.52-.74-.77-1.39-.77-.79,0-1.29.53-1.44.79h-.02v-.65h-.89v5.76h.97v-4.44c.17-.2.54-.6,1.19-.6h0ZM81.52,31.35c.39,0,.65-.29.65-.69s-.26-.68-.65-.68-.66.28-.66.68.26.69.66.69h0ZM82,32.74h-.97v5.76h.97v-5.76ZM85.63,33.42c.67,0,1,.4,1,1.37v3.71h.97v-3.78c0-1.56-.65-2.12-1.68-2.12-.9,0-1.42.59-1.52.79h-.02v-.65h-.89v5.76h.97v-4.44c.19-.24.59-.64,1.18-.64h0ZM89.55,31.35c.38,0,.65-.29.65-.69s-.27-.68-.65-.68-.66.28-.66.68.26.69.66.69h0ZM90.03,32.74h-.97v5.76h.97v-5.76ZM94.42,33.21c-.19-.19-.58-.61-1.46-.61-.94,0-1.67.64-1.67,1.49,0,.79.43,1.26,1.15,1.72l.36.23c.55.35.84.54.84,1.09,0,.37-.31.66-.89.66-.62,0-.98-.38-1.16-.57l-.47.77c.23.24.69.66,1.62.66,1.18,0,1.84-.71,1.84-1.62,0-.85-.48-1.32-1.26-1.79l-.36-.22c-.52-.31-.75-.55-.75-.98,0-.34.27-.61.79-.61.54,0,.88.34,1.01.48,0,0,.42-.7.42-.7ZM98.33,38.39l-.13-.78c-.1.06-.31.17-.6.17-.49,0-.68-.24-.68-1.06v-3.19h1.26l.12-.79h-1.38v-1.61h-.86l-.11,1.61-.69.14v.65h.69v3.32c0,1.27.5,1.79,1.49,1.79.52,0,.82-.19.9-.25h0ZM101.07,33.39c.61,0,.93.47.93,1.26,0,.18-.01.34-.02.42h-2.09c.05-1.08.49-1.68,1.18-1.68h0ZM103.01,37.96l-.36-.68c-.13.13-.53.5-1.21.5-.97,0-1.5-.64-1.56-1.98h2.94c.04-.28.07-.62.07-1.12,0-1.38-.67-2.09-1.77-2.09-1.2,0-2.19.91-2.19,2.95,0,2.17.91,3.1,2.36,3.1,1.09,0,1.56-.52,1.71-.68h0ZM106.84,32.73c-.09-.03-.25-.09-.53-.09-.73,0-1.04.43-1.21.89h-.02v-.78h-.89v5.76h.97v-4.22c.14-.39.47-.78,1.08-.78.26,0,.43.07.48.09l.12-.86h0ZM108.17,31.35c.39,0,.65-.29.65-.69s-.26-.68-.65-.68-.66.28-.66.68.27.69.66.69h0ZM108.65,32.74h-.97v5.76h.97v-5.76ZM113.26,37.85h.02v.65h.89v-5.76h-.97v4.41c-.2.24-.58.64-1.16.64-.65,0-.96-.39-.96-1.33v-3.71h-.97v3.78c0,1.56.64,2.12,1.66,2.12.88,0,1.39-.59,1.5-.79h0ZM117.82,33.46c.6,0,.86.4.86,1.33v3.71h.97v-3.86c0-.22-.01-.42-.05-.6.21-.25.57-.58,1.1-.58.65,0,1,.4,1,1.33v3.71h.97v-3.86c0-1.37-.6-2.04-1.75-2.04-.75,0-1.27.44-1.52.77-.27-.52-.75-.77-1.4-.77-.79,0-1.28.53-1.44.79h-.02v-.65h-.89v5.76h.97v-4.44c.17-.2.54-.6,1.19-.6h0Z"/>
    <path class="cls-3" d="M43.09,45.53l.12-.79h-1.3v-1.03c0-.75.25-1.01.71-1.01.25,0,.43.1.53.16l.21-.81c-.1-.06-.41-.22-.82-.22-.85,0-1.6.5-1.6,1.76v1.15l-.7.13v.65h.7v4.97h.97v-4.97s1.18,0,1.18,0ZM47.55,43.08c0-.37-.25-.61-.58-.61s-.57.24-.57.61.25.61.57.61.58-.24.58-.61h0ZM45.7,43.08c0-.37-.25-.61-.58-.61s-.57.24-.57.61.25.61.57.61.58-.24.58-.61h0ZM47.17,49.85h.03v.65h.89v-5.76h-.97v4.41c-.19.24-.57.64-1.16.64-.65,0-.96-.39-.96-1.33v-3.71h-.97v3.78c0,1.56.64,2.12,1.66,2.12.88,0,1.39-.59,1.5-.79h0ZM52.23,44.73c-.1-.04-.25-.09-.53-.09-.74,0-1.05.43-1.21.89h-.02v-.78h-.89v5.76h.97v-4.22c.14-.39.46-.78,1.08-.78.27,0,.43.07.48.09,0,0,.12-.86.12-.86ZM55.54,42.22v8.28h4l.07-.86h-3.02v-7.42h-1.04ZM62.86,47.26h-.3c-1.31,0-2.4.45-2.4,1.78,0,.94.66,1.61,1.54,1.61.73,0,1.08-.49,1.21-.78h.02c.01.29.02.47.04.64h.93c-.02-.16-.07-.71-.07-1.2v-2.63c0-1.45-.62-2.08-1.8-2.08-.92,0-1.47.44-1.73.7l.41.65c.21-.19.6-.52,1.18-.52.62,0,.99.31.99,1.29v.55h0ZM62.86,47.98v1.27c-.12.18-.4.57-.96.57-.48,0-.77-.3-.77-.89,0-.63.49-.9,1.42-.93,0,0,.31-.01.31-.01ZM67.43,45.42c.67,0,1,.4,1,1.37v3.71h.97v-3.78c0-1.56-.65-2.12-1.68-2.12-.9,0-1.42.59-1.52.79h-.03v-.65h-.89v5.76h.97v-4.44c.19-.24.59-.64,1.18-.64h0ZM72.87,49.78c-.67,0-1.27-.53-1.27-2.11s.71-2.21,1.61-2.21c.35,0,.57.09.74.2v3.55c-.13.19-.47.57-1.08.57h0ZM74,49.89h.03v.61h.89v-8.59l-.97.11v2.76c-.18-.07-.45-.14-.82-.14-1.22,0-2.54.74-2.54,3.07,0,2.1.92,2.94,2.02,2.94.91,0,1.3-.58,1.4-.76h0ZM82.11,44.74l-.85,3.18c-.17.64-.32,1.25-.35,1.67h-.02c-.01-.42-.18-1.02-.36-1.67l-.88-3.18h-1.01l.43,1.42-.62,1.88c-.19.59-.36,1.08-.41,1.55h-.03c-.01-.45-.15-.98-.31-1.58l-.87-3.26h-1.04l1.81,5.76h.83l.66-2c.19-.57.36-1.08.38-1.52h.02c.03.44.17.93.34,1.51l.59,2.01h.86l1.75-5.76h-.94ZM84.43,43.35c.38,0,.65-.29.65-.69s-.27-.68-.65-.68-.66.28-.66.68.27.69.66.69h0ZM84.91,44.74h-.97v5.76h.97v-5.76ZM89.06,44.73c-.1-.04-.25-.09-.53-.09-.74,0-1.05.43-1.21.89h-.02v-.78h-.89v5.76h.97v-4.22c.14-.39.46-.78,1.08-.78.26,0,.43.07.48.09,0,0,.12-.86.12-.86ZM92.51,50.39l-.13-.78c-.1.06-.31.17-.6.17-.49,0-.68-.24-.68-1.06v-3.19h1.26l.12-.79h-1.38v-1.61h-.86l-.11,1.61-.7.14v.65h.7v3.32c0,1.27.5,1.79,1.49,1.79.51,0,.82-.19.9-.25h0ZM96.36,45.21c-.2-.19-.58-.61-1.46-.61-.94,0-1.67.64-1.67,1.49,0,.79.43,1.26,1.15,1.72l.36.23c.55.35.84.54.84,1.09,0,.37-.31.66-.89.66-.62,0-.99-.38-1.16-.57l-.47.77c.23.24.69.66,1.62.66,1.18,0,1.84-.71,1.84-1.62,0-.85-.48-1.32-1.26-1.79l-.36-.21c-.52-.31-.76-.55-.76-.98,0-.34.28-.61.79-.61s.88.34,1.01.48l.42-.7h0ZM101.27,45.17c-.18-.2-.59-.58-1.46-.58-1.14,0-2.41.81-2.41,3.02s1.02,3.04,2.31,3.04c.9,0,1.34-.42,1.5-.6l-.4-.67c-.12.13-.42.41-1.01.41-.83,0-1.39-.56-1.39-2.25,0-1.52.65-2.11,1.48-2.11.57,0,.88.32.99.43,0,0,.41-.68.41-.68ZM104.44,45.42c.67,0,1,.4,1,1.37v3.71h.97v-3.78c0-1.52-.64-2.12-1.65-2.12-.93,0-1.36.56-1.48.74h-.02v-3.42l-.97.11v8.48h.97v-4.44c.19-.24.59-.64,1.18-.64h0ZM110.22,47.26h-.3c-1.31,0-2.4.45-2.4,1.78,0,.94.66,1.61,1.54,1.61.73,0,1.08-.49,1.21-.78h.02c.01.29.02.47.04.64h.93c-.02-.16-.07-.71-.07-1.2v-2.63c0-1.45-.62-2.08-1.8-2.08-.93,0-1.48.44-1.73.7l.41.65c.21-.19.6-.52,1.18-.52.62,0,.98.31.98,1.29v.55h0ZM110.22,47.98v1.27c-.12.18-.4.57-.96.57-.48,0-.77-.3-.77-.89,0-.63.49-.9,1.42-.93h.31ZM115.07,45.53l.12-.79h-1.29v-1.03c0-.75.25-1.01.71-1.01.25,0,.43.1.53.16l.2-.81c-.09-.06-.41-.22-.82-.22-.85,0-1.59.5-1.59,1.76v1.15l-.7.13v.65h.7v4.97h.97v-4.97s1.18,0,1.18,0ZM118.64,50.39l-.13-.78c-.09.06-.31.17-.6.17-.49,0-.68-.24-.68-1.06v-3.19h1.26l.12-.79h-1.38v-1.61h-.86l-.11,1.61-.7.14v.65h.7v3.32c0,1.27.5,1.79,1.49,1.79.51,0,.82-.19.9-.25h0ZM119.46,52.18c.64-.23,1.39-.74,1.39-1.84,0-.79-.32-1.18-.79-1.18-.34,0-.62.21-.62.65s.29.68.66.68h.04c0,.7-.37,1.01-.88,1.26l.2.42h0ZM128.69,42.22h-4.07v8.28h4.23l.06-.86h-3.25v-2.91h2.71v-.83h-2.71v-2.86h2.95s.07-.83.07-.83ZM132.76,44.73c-.1-.04-.25-.09-.53-.09-.73,0-1.05.43-1.21.89h-.02v-.78h-.89v5.76h.97v-4.22c.14-.39.47-.78,1.08-.78.26,0,.43.07.48.09l.12-.86h0ZM135.75,45.42c.67,0,1,.4,1,1.37v3.71h.97v-3.78c0-1.56-.65-2.12-1.68-2.12-.9,0-1.42.59-1.53.79h-.02v-.65h-.89v5.76h.97v-4.44c.19-.24.59-.64,1.18-.64h0ZM142.19,43.08c0-.37-.25-.61-.57-.61s-.57.24-.57.61.25.61.57.61.57-.24.57-.61h0ZM140.34,43.08c0-.37-.25-.61-.57-.61s-.58.24-.58.61.25.61.58.61.57-.24.57-.61h0ZM141.53,47.26h-.3c-1.31,0-2.4.45-2.4,1.78,0,.94.66,1.61,1.54,1.61.73,0,1.08-.49,1.21-.78h.02c.01.29.02.47.04.64h.93c-.02-.16-.07-.71-.07-1.2v-2.63c0-1.45-.62-2.08-1.8-2.08-.92,0-1.47.44-1.73.7l.41.65c.21-.19.6-.52,1.18-.52.62,0,.98.31.98,1.29v.55h0ZM141.53,47.98v1.27c-.12.18-.4.57-.96.57-.48,0-.77-.3-.77-.89,0-.63.49-.9,1.42-.93h.31ZM146.1,45.42c.67,0,1,.4,1,1.37v3.71h.97v-3.78c0-1.52-.64-2.12-1.65-2.12-.93,0-1.35.56-1.48.74h-.02v-3.42l-.97.11v8.48h.97v-4.44c.19-.24.59-.64,1.18-.64h0ZM152.17,44.73c-.09-.04-.25-.09-.53-.09-.73,0-1.04.43-1.21.89h-.02v-.78h-.89v5.76h.97v-4.22c.14-.39.47-.78,1.08-.78.26,0,.43.07.48.09l.12-.86h0ZM156.13,49.85h.02v.65h.89v-5.76h-.97v4.41c-.19.24-.58.64-1.16.64-.65,0-.96-.39-.96-1.33v-3.71h-.97v3.78c0,1.56.64,2.12,1.66,2.12.88,0,1.39-.59,1.5-.79h0ZM160.68,45.42c.67,0,1,.4,1,1.37v3.71h.97v-3.78c0-1.56-.65-2.12-1.68-2.12-.9,0-1.41.59-1.52.79h-.02v-.65h-.89v5.76h.97v-4.44c.19-.24.59-.64,1.18-.64h0ZM166.84,46.53c0,.83-.45,1.15-1.01,1.15s-1-.32-1-1.15.47-1.15,1.02-1.15.98.32.98,1.15h0ZM168.25,50.94c0-1.09-.82-1.53-1.91-1.53h-.73c-.42,0-.59-.17-.59-.41,0-.3.28-.46.47-.54.1.01.19.01.3.01,1.13,0,1.99-.74,1.99-1.96,0-.38-.1-.74-.28-1.03h.72l.13-.76h-1.75c-.24-.09-.49-.14-.77-.14-1.08,0-1.95.64-1.95,1.93,0,.91.4,1.49.99,1.76v.02c-.15.07-.7.31-.7.93,0,.36.13.62.38.81v.02c-.26.14-.96.55-.96,1.41,0,1,.66,1.56,1.88,1.56,1.7,0,2.79-.86,2.79-2.1h0ZM165.54,52.21c-.69,0-1.02-.31-1.02-.92,0-.58.31-.85.59-1.01.13.02.29.04.45.04h.73c.59,0,.97.21.97.76,0,.59-.54,1.13-1.71,1.13h0Z"/>
    <path class="cls-3" d="M43.79,61.85h.02v.65h.89v-5.76h-.97v4.41c-.19.24-.58.64-1.16.64-.65,0-.96-.39-.96-1.33v-3.71h-.97v3.78c0,1.56.64,2.12,1.66,2.12.88,0,1.39-.59,1.5-.79h0ZM48.34,57.42c.67,0,1,.4,1,1.37v3.71h.97v-3.78c0-1.56-.65-2.12-1.68-2.12-.9,0-1.41.59-1.52.79h-.02v-.65h-.89v5.76h.97v-4.44c.19-.24.59-.64,1.18-.64h0ZM53.77,61.78c-.67,0-1.27-.53-1.27-2.11s.71-2.21,1.61-2.21c.35,0,.57.09.74.2v3.55c-.13.19-.46.57-1.08.57h0ZM54.91,61.89h.02v.61h.89v-8.59l-.97.11v2.76c-.18-.07-.44-.14-.81-.14-1.23,0-2.55.74-2.55,3.07,0,2.1.93,2.94,2.01,2.94.91,0,1.3-.58,1.41-.76h0ZM65.57,54.22h-1.04v3.68h-3.42v-3.68h-1.04v8.28h1.04v-3.77h3.42v3.77h1.04v-8.28ZM69.09,57.39c.61,0,.93.47.93,1.26,0,.18-.01.34-.02.42h-2.09c.05-1.08.49-1.68,1.18-1.68h0ZM71.03,61.96l-.36-.68c-.13.13-.53.5-1.21.5-.97,0-1.5-.64-1.56-1.98h2.94c.04-.28.07-.62.07-1.12,0-1.38-.67-2.09-1.77-2.09-1.2,0-2.19.91-2.19,2.95,0,2.17.91,3.1,2.36,3.1,1.09,0,1.56-.52,1.72-.68h0ZM72.7,55.35c.38,0,.64-.29.64-.69s-.26-.68-.64-.68-.66.29-.66.68.26.69.66.69h0ZM73.18,56.74h-.97v5.76h.97v-5.76ZM76.82,57.46c.6,0,.86.39.86,1.33v3.71h.97v-3.86c0-.22-.01-.42-.05-.6.21-.25.57-.57,1.11-.57.65,0,1,.39,1,1.33v3.71h.97v-3.86c0-1.37-.6-2.04-1.75-2.04-.75,0-1.27.44-1.52.77-.27-.52-.75-.77-1.39-.77-.79,0-1.28.53-1.44.79h-.02v-.65h-.89v5.76h.97v-4.44c.17-.2.54-.6,1.19-.6h0ZM85.5,59.26h-.3c-1.31,0-2.4.45-2.4,1.78,0,.94.66,1.61,1.54,1.61.74,0,1.08-.49,1.21-.78h.02c.01.29.02.47.04.64h.93c-.03-.16-.07-.71-.07-1.2v-2.63c0-1.45-.62-2.08-1.8-2.08-.92,0-1.48.44-1.73.7l.41.65c.22-.19.6-.52,1.18-.52.62,0,.98.31.98,1.29v.55h0ZM85.5,59.98v1.27c-.12.18-.39.57-.96.57-.48,0-.77-.3-.77-.89,0-.63.49-.9,1.41-.93h.31ZM90.54,62.39l-.13-.78c-.1.06-.31.17-.6.17-.49,0-.68-.24-.68-1.06v-3.19h1.26l.12-.79h-1.38v-1.61h-.86l-.11,1.61-.7.14v.65h.7v3.32c0,1.27.5,1.79,1.49,1.79.52,0,.82-.19.9-.25h0Z"/>
  </g>
</svg>