<svg xmlns="http://www.w3.org/2000/svg" viewBox="0 0 160.96 160.96"><title>Element 1</title><g id="Ebene_2" data-name="Ebene 2"><g id="Auswahl_Grundschule" data-name="Auswahl Grundschule"><rect width="160.96" height="160.96" style="fill:#97c11f"/><path d="M145.19,115.88" style="fill:#fff"/><path d="M145.19,115.88" style="fill:none;stroke:#de543d;stroke-width:0.6864961160337px"/><path d="M115.28,126.87h5.31l2.7-18.54a8.21,8.21,0,0,1,3.77-.83c2.56,0,5,1.1,4.78,3.77l-2.27,15.59h5.26L137.16,111c.87-6-3.86-8.37-9.37-8.46a23.28,23.28,0,0,0-9.22,1.93ZM97.79,111.23c.39-2.44,2.8-3.86,5.22-3.86,2.75,0,4.11,1.47,4,3.08-.1,1.84-1.74,3.22-4.54,3.22a17.84,17.84,0,0,1-5-.78Zm8.4,9.06a7.21,7.21,0,0,1-5.55,2.39c-2.37,0-4.39-1.33-4-3.73l.29-2.3a15,15,0,0,0,5.22.92c5.22,0,9.42-2.12,10.09-6.67.82-5.52-3.57-8.33-8.55-8.33S93.4,105.39,92.58,111L91.42,119c-.82,5.47,4,8.37,8.79,8.37a12.61,12.61,0,0,0,9.37-4.65Zm-38.64,1.38c1.26,3.82,5.17,5.66,9.08,5.66,4.54,0,9.22-2.35,9.95-7.31s-3.33-6.67-7.25-7.31c-2-.32-4.59-1.2-4.11-3.31.44-1.61,1.84-2.21,3.43-2.16a8,8,0,0,1,5.26,1.89l3.67-3.31a11.42,11.42,0,0,0-8.16-3.22c-4.25,0-8.74,1.79-9.51,7.08s4.39,7,7.82,7.68c1.64.37,3.77.87,3.53,2.62s-2,2.67-3.86,2.67a6.1,6.1,0,0,1-5.51-3.4Zm-22.7,0c1.26,3.82,5.17,5.66,9.08,5.66,4.54,0,9.23-2.35,9.95-7.31s-3.33-6.67-7.24-7.31c-2-.32-4.59-1.2-4.11-3.31.43-1.61,1.84-2.21,3.43-2.16a8,8,0,0,1,5.26,1.89l3.67-3.31a11.42,11.42,0,0,0-8.16-3.22c-4.25,0-8.74,1.79-9.52,7.08s4.39,7,7.82,7.68c1.64.37,3.77.87,3.53,2.62s-2,2.67-3.86,2.67a6.1,6.1,0,0,1-5.51-3.4ZM28.05,111.23c.39-2.44,2.8-3.86,5.22-3.86,2.75,0,4.11,1.47,4,3.08-.1,1.84-1.74,3.22-4.54,3.22a17.84,17.84,0,0,1-5-.78Zm8.4,9.06a7.21,7.21,0,0,1-5.55,2.39c-2.37,0-4.39-1.33-4-3.73l.29-2.3a15,15,0,0,0,5.22.92c5.22,0,9.42-2.12,10.09-6.67.82-5.52-3.57-8.33-8.55-8.33S23.66,105.39,22.83,111L21.68,119c-.82,5.47,4,8.37,8.79,8.37a12.61,12.61,0,0,0,9.37-4.65Z" style="fill:#fff"/><path d="M131,89.78c-3,0-4.11-1.52-3.82-3.45l3.62-24.84h-5.31l-3.62,24.84c-.72,5.06,2.27,8.19,8.45,8.19ZM116.38,70.23h-5.26l-2.8,19.09a8.85,8.85,0,0,1-3.82.83c-2.61,0-5-1.2-4.78-3.82l2.37-16.1H96.77l-2.37,16c-.87,5.93,3.38,8.23,8.79,8.28a28.34,28.34,0,0,0,9.9-2ZM76,61.49H70.74L66,94.06h5.31L73.93,75.7a9.15,9.15,0,0,1,4.25-1c2.51,0,4.78,1,4.39,3.63L80.3,94.06h5.26l2.27-16c.82-5.75-3.43-8.37-8.26-8.33a14.15,14.15,0,0,0-4.93.92ZM42.58,86.14c-.82,5.52,3.67,8.37,8.55,8.37,3.91,0,8.69-1.7,10.72-6.26l-4.59-1.93A6,6,0,0,1,52,89.59c-2.42,0-4.44-1.29-4.15-3.4l1.26-8.28c.29-2.07,2.75-3.22,5.07-3.22,2.08,0,4.06,1,4.4,3.08L63.64,76c-.68-4.55-4.88-6.26-8.79-6.26C50,69.77,44.61,72.44,43.79,78ZM18.91,88.86c1.26,3.82,5.17,5.66,9.08,5.66,4.54,0,9.23-2.35,9.95-7.31s-3.33-6.67-7.24-7.31c-2-.32-4.59-1.2-4.11-3.31C27,75,28.43,74.37,30,74.41a8,8,0,0,1,5.26,1.89L39,73a11.42,11.42,0,0,0-8.16-3.22c-4.25,0-8.74,1.79-9.52,7.08s4.39,7,7.82,7.68c1.64.37,3.77.87,3.53,2.62s-2,2.67-3.86,2.67a6.1,6.1,0,0,1-5.51-3.4Z" style="fill:#3bab4a"/><polygon points="19.35 135.21 133.93 135.21 133.16 140.2 18.58 140.2 19.35 135.21" style="fill:#3bab4a"/><path d="M51.89,53.2,55.18,30.9H49.91L47.11,50a8.87,8.87,0,0,1-3.82.83c-2.61,0-5-1.2-4.78-3.82l2.37-16.1H35.57l-2.37,16c-.87,5.93,3.38,8.23,8.79,8.28a28.33,28.33,0,0,0,9.9-2M79.16,38.9c.87-6-3.86-8.37-9.37-8.46a23.28,23.28,0,0,0-9.22,1.93L57.28,54.72h5.31l2.7-18.54a8.21,8.21,0,0,1,3.77-.83c2.56,0,5,1.1,4.78,3.77L71.58,54.72h5.26ZM97.78,37l3.67-3.31a11.42,11.42,0,0,0-8.16-3.22c-4.25,0-8.74,1.79-9.52,7.08s4.4,7,7.82,7.68c1.64.37,3.77.87,3.53,2.62s-2,2.67-3.86,2.67a6.1,6.1,0,0,1-5.51-3.4L81.4,49.52c1.26,3.82,5.17,5.66,9.08,5.66,4.54,0,9.22-2.35,9.95-7.31s-3.33-6.67-7.25-7.31c-2-.32-4.59-1.2-4.11-3.31.44-1.61,1.84-2.21,3.43-2.16A8,8,0,0,1,97.78,37m21.78,1.33c-.1,1.84-1.74,3.22-4.54,3.22a17.8,17.8,0,0,1-5-.78l.29-1.66c.39-2.44,2.8-3.86,5.22-3.86,2.75,0,4.11,1.47,4,3.08m5.22.46c.82-5.52-3.57-8.33-8.55-8.33s-10.29,2.81-11.11,8.46L104,46.81c-.82,5.47,4,8.37,8.79,8.37a12.6,12.6,0,0,0,9.37-4.65l-3.38-2.39a7.2,7.2,0,0,1-5.55,2.39c-2.37,0-4.4-1.33-4-3.73l.29-2.3a14.93,14.93,0,0,0,5.22.92c5.22,0,9.42-2.12,10.09-6.67m17.58-8a12.85,12.85,0,0,0-2.8-.28,16.1,16.1,0,0,0-5.12,1,9,9,0,0,0-5.7,7.18l-2.37,16.1h5.31l2.37-16c.48-3.22,5-4.32,7.63-3.54Z" style="fill:#fff"/></g></g></svg>