<?xml version="1.0" encoding="UTF-8"?>
<svg id="Ebene_1" data-name="Ebene 1" xmlns="http://www.w3.org/2000/svg" viewBox="0 0 164.08 164.08">
  <defs>
    <style>
      .cls-1 {
        fill: #16411c;
      }

      .cls-2 {
        fill: #fff;
      }

      .cls-3 {
        fill: #ffc500;
      }
    </style>
  </defs>
  <rect class="cls-1" width="164.08" height="164.08"/>
  <path class="cls-2" d="M117.51,129.33h5.42l2.76-18.9c1.03-.56,2.46-.84,3.84-.84,2.61,0,5.12,1.13,4.87,3.85l-2.31,15.9h5.37l2.36-16.13c.89-6.09-3.94-8.53-9.55-8.63-3.15,0-6.6.7-9.4,1.97l-3.35,22.79ZM99.69,113.39c.39-2.49,2.86-3.94,5.32-3.94,2.81,0,4.18,1.5,4.09,3.14-.1,1.88-1.77,3.28-4.63,3.28-2.07,0-3.99-.47-5.07-.8l.29-1.69ZM108.26,122.63c-1.38,1.69-3.74,2.49-5.66,2.44-2.41-.05-4.48-1.36-4.09-3.8l.3-2.34c1.62.61,3.45.94,5.32.94,5.32,0,9.6-2.16,10.29-6.8.84-5.63-3.64-8.49-8.72-8.49s-10.49,2.86-11.32,8.63l-1.18,8.07c-.84,5.58,4.04,8.53,8.96,8.53,3.3,0,6.94-1.64,9.55-4.74l-3.45-2.44ZM68.87,124.03c1.28,3.89,5.27,5.77,9.26,5.77,4.63,0,9.4-2.39,10.14-7.46.69-5.16-3.4-6.8-7.39-7.46-2.07-.33-4.68-1.22-4.18-3.38.44-1.64,1.87-2.25,3.5-2.2,2.17.05,4.33.84,5.37,1.92l3.74-3.38c-2.17-2.35-5.61-3.28-8.32-3.28-4.33,0-8.91,1.83-9.7,7.22-.79,5.49,4.48,7.17,7.98,7.83,1.67.37,3.84.89,3.59,2.67-.34,1.83-2.07,2.72-3.94,2.72-2.12,0-4.58-1.17-5.61-3.47l-4.43,2.49ZM45.73,124.03c1.28,3.89,5.27,5.77,9.26,5.77,4.63,0,9.4-2.39,10.14-7.46.69-5.16-3.4-6.8-7.38-7.46-2.07-.33-4.68-1.22-4.18-3.38.44-1.64,1.87-2.25,3.5-2.2,2.17.05,4.33.84,5.37,1.92l3.74-3.38c-2.17-2.35-5.61-3.28-8.32-3.28-4.33,0-8.91,1.83-9.7,7.22-.79,5.49,4.48,7.17,7.98,7.83,1.67.37,3.84.89,3.59,2.67-.34,1.83-2.07,2.72-3.94,2.72-2.12,0-4.58-1.17-5.61-3.47l-4.43,2.49ZM28.59,113.39c.39-2.49,2.86-3.94,5.32-3.94,2.81,0,4.18,1.5,4.09,3.14-.1,1.88-1.77,3.28-4.63,3.28-2.07,0-3.99-.47-5.07-.8l.29-1.69ZM37.16,122.63c-1.38,1.69-3.74,2.49-5.66,2.44-2.41-.05-4.48-1.36-4.09-3.8l.3-2.34c1.62.61,3.45.94,5.32.94,5.32,0,9.6-2.16,10.29-6.8.84-5.63-3.64-8.49-8.72-8.49s-10.49,2.86-11.32,8.63l-1.18,8.07c-.84,5.58,4.04,8.53,8.96,8.53,3.3,0,6.94-1.64,9.55-4.74l-3.45-2.44Z"/>
  <path class="cls-3" d="M133.55,91.52c-3.05,0-4.18-1.55-3.89-3.52l3.69-25.32h-5.42l-3.69,25.32c-.74,5.16,2.31,8.35,8.62,8.35l.69-4.83ZM118.64,71.59h-5.37l-2.86,19.46c-1.13.56-2.56.84-3.89.84-2.66,0-5.12-1.22-4.87-3.89l2.41-16.41h-5.42l-2.41,16.32c-.89,6.05,3.45,8.39,8.96,8.44,3.2,0,6.84-.75,10.09-2.02l3.35-22.74ZM77.47,62.68h-5.37l-4.87,33.2h5.42l2.71-18.71c1.18-.66,2.81-1.03,4.33-1.03,2.56,0,4.87,1.03,4.48,3.7l-2.31,16.04h5.37l2.31-16.27c.84-5.86-3.5-8.53-8.42-8.49-1.67,0-3.4.33-5.02.94l1.38-9.38ZM43.41,87.81c-.84,5.63,3.74,8.53,8.71,8.53,3.99,0,8.86-1.73,10.93-6.38l-4.68-1.97c-.94,2.11-3.3,3.28-5.37,3.33-2.46.05-4.53-1.31-4.23-3.47l1.28-8.44c.29-2.11,2.81-3.28,5.17-3.28,2.12.05,4.14.99,4.48,3.14l5.17-1.78c-.69-4.64-4.97-6.38-8.96-6.38-4.97,0-10.44,2.72-11.27,8.35l-1.23,8.35ZM19.28,90.58c1.28,3.89,5.27,5.77,9.26,5.77,4.63,0,9.4-2.39,10.14-7.45.69-5.16-3.4-6.8-7.38-7.46-2.07-.33-4.68-1.22-4.18-3.38.44-1.64,1.87-2.25,3.5-2.2,2.17.05,4.33.84,5.37,1.92l3.74-3.38c-2.17-2.35-5.61-3.28-8.32-3.28-4.33,0-8.91,1.83-9.7,7.22-.79,5.49,4.48,7.17,7.98,7.83,1.67.37,3.84.89,3.59,2.67-.35,1.83-2.07,2.72-3.94,2.72-2.12,0-4.58-1.17-5.61-3.47l-4.43,2.49Z"/>
  <polygon class="cls-3" points="19.73 137.83 136.52 137.83 135.74 142.92 18.94 142.92 19.73 137.83"/>
  <path class="cls-2" d="M52.9,54.24l3.35-22.74h-5.37l-2.86,19.46c-1.13.56-2.56.84-3.89.84-2.66,0-5.12-1.22-4.87-3.89l2.41-16.41h-5.42l-2.41,16.32c-.89,6.05,3.45,8.39,8.96,8.44,3.2,0,6.84-.75,10.09-2.02M80.7,39.65c.89-6.1-3.94-8.53-9.55-8.63-3.15,0-6.6.7-9.4,1.97l-3.35,22.79h5.42l2.76-18.9c1.03-.56,2.46-.84,3.84-.84,2.61,0,5.12,1.13,4.87,3.85l-2.31,15.9h5.37l2.36-16.13ZM99.67,37.68l3.74-3.38c-2.17-2.34-5.61-3.28-8.32-3.28-4.33,0-8.91,1.83-9.7,7.22-.79,5.49,4.48,7.17,7.98,7.83,1.67.38,3.84.89,3.59,2.67-.34,1.83-2.07,2.72-3.94,2.72-2.12,0-4.58-1.17-5.61-3.47l-4.43,2.49c1.28,3.89,5.27,5.77,9.26,5.77,4.63,0,9.4-2.39,10.14-7.46.69-5.16-3.4-6.8-7.39-7.46-2.07-.33-4.68-1.22-4.18-3.38.44-1.64,1.87-2.25,3.5-2.2,2.17.05,4.33.84,5.37,1.92M121.88,39.04c-.1,1.88-1.77,3.28-4.63,3.28-2.07,0-3.99-.47-5.07-.8l.29-1.69c.39-2.49,2.86-3.94,5.32-3.94,2.81,0,4.18,1.5,4.09,3.14M127.19,39.51c.84-5.63-3.64-8.49-8.72-8.49s-10.49,2.86-11.32,8.63l-1.18,8.06c-.84,5.58,4.04,8.53,8.96,8.53,3.3,0,6.94-1.64,9.55-4.74l-3.45-2.44c-1.38,1.69-3.74,2.49-5.66,2.44-2.41-.05-4.48-1.36-4.09-3.8l.3-2.34c1.62.61,3.45.94,5.32.94,5.32,0,9.6-2.16,10.29-6.8M145.11,31.31c-1.08-.23-2.02-.28-2.86-.28-.74,0-3.05.19-5.22,1.03-2.95,1.13-5.32,3.85-5.81,7.32l-2.41,16.41h5.42l2.41-16.32c.49-3.28,5.12-4.41,7.78-3.61l.69-4.55Z"/>
</svg>